<svg xmlns="http://www.w3.org/2000/svg" viewBox="0 0 1200 720" width="1200" height="720" fill="none">
  <defs>
    <linearGradient id="bgGrad" x1="0" y1="0" x2="0.3" y2="1">
      <stop offset="0%" stop-color="#110d1f"/>
      <stop offset="100%" stop-color="#1a1230"/>
    </linearGradient>
    <linearGradient id="cardGrad" x1="0" y1="0" x2="0" y2="1">
      <stop offset="0%" stop-color="#231840"/>
      <stop offset="100%" stop-color="#1a1230"/>
    </linearGradient>
    <linearGradient id="lavGrad" x1="0" y1="0" x2="1" y2="1">
      <stop offset="0%" stop-color="#D2B3F3"/>
      <stop offset="100%" stop-color="#9B6DD4"/>
    </linearGradient>
    <linearGradient id="tealGrad" x1="0" y1="0" x2="1" y2="0">
      <stop offset="0%" stop-color="#14B8A6"/>
      <stop offset="100%" stop-color="#5EEAD4"/>
    </linearGradient>
    <linearGradient id="chartFill" x1="0" y1="1" x2="0" y2="0">
      <stop offset="0%" stop-color="#D2B3F3" stop-opacity="0"/>
      <stop offset="100%" stop-color="#D2B3F3" stop-opacity="0.18"/>
    </linearGradient>
    <linearGradient id="barLav" x1="0" y1="0" x2="1" y2="0">
      <stop offset="0%" stop-color="#D2B3F3" stop-opacity="0.5"/>
      <stop offset="100%" stop-color="#D2B3F3"/>
    </linearGradient>
    <linearGradient id="barTeal" x1="0" y1="0" x2="1" y2="0">
      <stop offset="0%" stop-color="#14B8A6" stop-opacity="0.5"/>
      <stop offset="100%" stop-color="#5EEAD4"/>
    </linearGradient>
    <linearGradient id="heroGlow" x1="0.5" y1="0" x2="0.5" y2="1">
      <stop offset="0%" stop-color="#D2B3F3" stop-opacity="0.06"/>
      <stop offset="50%" stop-color="#D2B3F3" stop-opacity="0"/>
    </linearGradient>
    <filter id="glow"><feGaussianBlur stdDeviation="6" result="b"/><feComposite in="SourceGraphic" in2="b" operator="over"/></filter>
    <filter id="bigGlow"><feGaussianBlur stdDeviation="30" result="b"/><feComposite in="SourceGraphic" in2="b" operator="over"/></filter>
    <filter id="cardShadow"><feDropShadow dx="0" dy="4" stdDeviation="12" flood-color="#000" flood-opacity="0.3"/></filter>
  </defs>

  <!-- Background -->
  <rect width="1200" height="720" rx="16" fill="url(#bgGrad)"/>
  <rect width="1200" height="720" rx="16" fill="url(#heroGlow)"/>

  <!-- Ambient orbs -->
  <circle cx="200" cy="150" r="180" fill="#D2B3F3" opacity="0.025" filter="url(#bigGlow)"/>
  <circle cx="1000" cy="550" r="200" fill="#14B8A6" opacity="0.02" filter="url(#bigGlow)"/>

  <!-- ═══ Title bar ═══ -->
  <rect x="0" y="0" width="1200" height="52" rx="16" fill="#0c0816" opacity="0.9"/>
  <rect x="0" y="36" width="1200" height="16" fill="#0c0816" opacity="0.9"/>
  <circle cx="28" cy="26" r="5.5" fill="#EF4444" opacity="0.85"/>
  <circle cx="46" cy="26" r="5.5" fill="#FBBF24" opacity="0.85"/>
  <circle cx="64" cy="26" r="5.5" fill="#22C55E" opacity="0.85"/>

  <!-- Logo mark -->
  <g transform="translate(90, 12)">
    <circle cx="14" cy="14" r="14" fill="#D2B3F3"/>
    <path d="M18.5 19.5L20 8L9.8 10.4C9.4 10.5 9.3 11 9.5 11.3C10.5 12.4 12.3 14.3 12.9 15.1C13.7 16 13.6 17.5 12.7 18.2C11.6 19.1 5.5 23 5.5 23C5.5 23 10.2 18.2 11.1 17C11.3 16.7 11.2 16.3 11 16.2C10 15.3 8.7 14.2 7.6 13.3C6.1 12 6.7 9.2 8.8 8.7C11.7 7.9 15.5 7 18.1 6.5C19.6 6.2 21 7.5 20.9 9.1L18.5 19.5Z" fill="white"/>
  </g>
  <text x="124" y="31" font-family="system-ui,sans-serif" font-size="13" font-weight="700" fill="white">Send</text>
  <text x="155" y="31" font-family="system-ui,sans-serif" font-size="13" font-weight="700" fill="#D2B3F3">Em</text>
  <text x="172" y="31" font-family="system-ui,sans-serif" font-size="13" font-weight="700" fill="white">All</text>

  <!-- Nav tabs -->
  <rect x="210" y="14" width="84" height="24" rx="6" fill="#D2B3F3" opacity="0.12"/>
  <text x="252" y="30" font-family="system-ui,sans-serif" font-size="11" fill="#D2B3F3" text-anchor="middle" font-weight="600">Campaigns</text>
  <text x="342" y="30" font-family="system-ui,sans-serif" font-size="11" fill="#7a6b94" text-anchor="middle">Buyers</text>
  <text x="440" y="30" font-family="system-ui,sans-serif" font-size="11" fill="#7a6b94" text-anchor="middle">Infrastructure</text>
  <text x="540" y="30" font-family="system-ui,sans-serif" font-size="11" fill="#7a6b94" text-anchor="middle">Analytics</text>

  <!-- User avatar -->
  <circle cx="1150" cy="26" r="13" fill="#D2B3F3" opacity="0.15"/>
  <text x="1150" y="30" font-family="system-ui,sans-serif" font-size="9" fill="#D2B3F3" text-anchor="middle" font-weight="700">JC</text>

  <!-- ═══ Campaign header ═══ -->
  <text x="40" y="90" font-family="system-ui,sans-serif" font-size="21" fill="white" font-weight="700">Q1 SaaS Founders Outreach</text>
  <rect x="320" y="74" width="62" height="22" rx="11" fill="#14B8A6" opacity="0.12"/>
  <text x="351" y="89" font-family="system-ui,sans-serif" font-size="10" fill="#14B8A6" text-anchor="middle" font-weight="600">ACTIVE</text>
  <rect x="394" y="74" width="72" height="22" rx="11" fill="#D2B3F3" opacity="0.08"/>
  <text x="430" y="89" font-family="system-ui,sans-serif" font-size="10" fill="#a89bbe" text-anchor="middle">Day 37</text>
  <text x="1160" y="89" font-family="system-ui,sans-serif" font-size="11" fill="#7a6b94" text-anchor="end">$149/mo plan · 1,500 credits used</text>
  <line x1="40" y1="108" x2="1160" y2="108" stroke="#D2B3F3" stroke-opacity="0.06"/>

  <!-- ═══ KPI Cards — larger, more prominent ═══ -->
  <!-- Card 1: Buyers Found -->
  <rect x="40" y="124" width="270" height="118" rx="14" fill="url(#cardGrad)" stroke="#D2B3F3" stroke-opacity="0.08" filter="url(#cardShadow)"/>
  <text x="60" y="152" font-family="system-ui,sans-serif" font-size="11" fill="#7a6b94" font-weight="600" letter-spacing="1">BUYERS FOUND</text>
  <text x="60" y="200" font-family="system-ui,sans-serif" font-size="42" fill="white" font-weight="800">2,847</text>
  <text x="60" y="226" font-family="system-ui,sans-serif" font-size="12" fill="#14B8A6" font-weight="500">+12% vs last month</text>
  <!-- Sparkline -->
  <polyline points="210,200 222,194 230,197 240,182 250,186 260,174 275,165" stroke="#D2B3F3" stroke-width="2" fill="none" stroke-linecap="round" stroke-linejoin="round" opacity="0.5"/>

  <!-- Card 2: Emails Sent -->
  <rect x="326" y="124" width="270" height="118" rx="14" fill="url(#cardGrad)" stroke="#D2B3F3" stroke-opacity="0.08" filter="url(#cardShadow)"/>
  <text x="346" y="152" font-family="system-ui,sans-serif" font-size="11" fill="#7a6b94" font-weight="600" letter-spacing="1">EMAILS SENT</text>
  <text x="346" y="200" font-family="system-ui,sans-serif" font-size="42" fill="white" font-weight="800">1,923</text>
  <text x="346" y="226" font-family="system-ui,sans-serif" font-size="12" fill="#14B8A6" font-weight="500">67.6% contact rate</text>
  <!-- Mini progress -->
  <rect x="496" y="188" width="80" height="5" rx="3" fill="#D2B3F3" opacity="0.08"/>
  <rect x="496" y="188" width="54" height="5" rx="3" fill="url(#lavGrad)" opacity="0.7"/>

  <!-- Card 3: Replies — HERO CARD, highlighted -->
  <rect x="612" y="124" width="270" height="118" rx="14" fill="url(#cardGrad)" stroke="#14B8A6" stroke-opacity="0.25" stroke-width="1.5" filter="url(#cardShadow)"/>
  <rect x="612" y="124" width="270" height="118" rx="14" fill="#14B8A6" opacity="0.04"/>
  <text x="632" y="152" font-family="system-ui,sans-serif" font-size="11" fill="#14B8A6" font-weight="600" letter-spacing="1">REPLIES</text>
  <text x="632" y="200" font-family="system-ui,sans-serif" font-size="42" fill="white" font-weight="800">342</text>
  <text x="718" y="200" font-family="system-ui,sans-serif" font-size="18" fill="#14B8A6" font-weight="700">17.8%</text>
  <!-- Guarantee badge -->
  <rect x="632" y="210" width="170" height="22" rx="11" fill="#14B8A6" opacity="0.12"/>
  <text x="640" y="225" font-family="system-ui,sans-serif" font-size="10" fill="#5EEAD4" font-weight="600">&#x2713; Reply guarantee met (50+)</text>

  <!-- Card 4: Meetings -->
  <rect x="898" y="124" width="262" height="118" rx="14" fill="url(#cardGrad)" stroke="#D2B3F3" stroke-opacity="0.08" filter="url(#cardShadow)"/>
  <text x="918" y="152" font-family="system-ui,sans-serif" font-size="11" fill="#7a6b94" font-weight="600" letter-spacing="1">MEETINGS BOOKED</text>
  <text x="918" y="200" font-family="system-ui,sans-serif" font-size="42" fill="white" font-weight="800">89</text>
  <text x="918" y="226" font-family="system-ui,sans-serif" font-size="12" fill="#D2B3F3" font-weight="500">$18.34 per meeting</text>
  <!-- Funnel -->
  <rect x="1066" y="166" width="44" height="7" rx="2" fill="#D2B3F3" opacity="0.2"/>
  <rect x="1070" y="178" width="36" height="7" rx="2" fill="#D2B3F3" opacity="0.35"/>
  <rect x="1074" y="190" width="28" height="7" rx="2" fill="url(#lavGrad)" opacity="0.6"/>
  <rect x="1078" y="202" width="20" height="7" rx="2" fill="url(#tealGrad)"/>

  <!-- ═══ Chart: Reply Rate ═══ -->
  <rect x="40" y="260" width="700" height="280" rx="14" fill="url(#cardGrad)" stroke="#D2B3F3" stroke-opacity="0.06" filter="url(#cardShadow)"/>
  <text x="64" y="290" font-family="system-ui,sans-serif" font-size="14" fill="white" font-weight="700">Reply Rate Over Time</text>
  <text x="214" y="290" font-family="system-ui,sans-serif" font-size="11" fill="#7a6b94">vs industry avg (1-3%)</text>

  <!-- Y-axis -->
  <text x="72" y="318" font-family="system-ui,sans-serif" font-size="9" fill="#5a4d73" text-anchor="end">20%</text>
  <text x="72" y="363" font-family="system-ui,sans-serif" font-size="9" fill="#5a4d73" text-anchor="end">15%</text>
  <text x="72" y="408" font-family="system-ui,sans-serif" font-size="9" fill="#5a4d73" text-anchor="end">10%</text>
  <text x="72" y="453" font-family="system-ui,sans-serif" font-size="9" fill="#5a4d73" text-anchor="end">5%</text>
  <text x="72" y="498" font-family="system-ui,sans-serif" font-size="9" fill="#5a4d73" text-anchor="end">0%</text>

  <!-- Grid lines -->
  <line x1="84" y1="314" x2="710" y2="314" stroke="#D2B3F3" stroke-opacity="0.04"/>
  <line x1="84" y1="359" x2="710" y2="359" stroke="#D2B3F3" stroke-opacity="0.04"/>
  <line x1="84" y1="404" x2="710" y2="404" stroke="#D2B3F3" stroke-opacity="0.04"/>
  <line x1="84" y1="449" x2="710" y2="449" stroke="#D2B3F3" stroke-opacity="0.04"/>
  <line x1="84" y1="494" x2="710" y2="494" stroke="#D2B3F3" stroke-opacity="0.04"/>

  <!-- X-axis -->
  <text x="130" y="518" font-family="system-ui,sans-serif" font-size="9" fill="#5a4d73" text-anchor="middle">Wk 1</text>
  <text x="240" y="518" font-family="system-ui,sans-serif" font-size="9" fill="#5a4d73" text-anchor="middle">Wk 2</text>
  <text x="350" y="518" font-family="system-ui,sans-serif" font-size="9" fill="#5a4d73" text-anchor="middle">Wk 3</text>
  <text x="460" y="518" font-family="system-ui,sans-serif" font-size="9" fill="#5a4d73" text-anchor="middle">Wk 4</text>
  <text x="570" y="518" font-family="system-ui,sans-serif" font-size="9" fill="#5a4d73" text-anchor="middle">Wk 5</text>
  <text x="680" y="518" font-family="system-ui,sans-serif" font-size="9" fill="#5a4d73" text-anchor="middle">Wk 6</text>

  <!-- Industry avg line -->
  <line x1="84" y1="472" x2="710" y2="472" stroke="#EF4444" stroke-opacity="0.35" stroke-width="1" stroke-dasharray="5 4"/>
  <rect x="694" y="464" width="46" height="16" rx="4" fill="#EF4444" opacity="0.1"/>
  <text x="717" y="476" font-family="system-ui,sans-serif" font-size="8" fill="#EF4444" text-anchor="middle" opacity="0.7">1-3%</text>

  <!-- Chart area fill -->
  <path d="M130,470 L240,445 L350,415 L460,385 L570,355 L680,330 L680,494 L130,494 Z" fill="url(#chartFill)"/>

  <!-- Chart line -->
  <polyline points="130,470 240,445 350,415 460,385 570,355 680,330" stroke="url(#lavGrad)" stroke-width="3" fill="none" stroke-linecap="round" stroke-linejoin="round" filter="url(#glow)"/>

  <!-- Data dots -->
  <circle cx="130" cy="470" r="4" fill="#1a1230" stroke="#D2B3F3" stroke-width="2"/>
  <circle cx="240" cy="445" r="4" fill="#1a1230" stroke="#D2B3F3" stroke-width="2"/>
  <circle cx="350" cy="415" r="4" fill="#1a1230" stroke="#D2B3F3" stroke-width="2"/>
  <circle cx="460" cy="385" r="4" fill="#1a1230" stroke="#D2B3F3" stroke-width="2"/>
  <circle cx="570" cy="355" r="4" fill="#1a1230" stroke="#D2B3F3" stroke-width="2"/>
  <circle cx="680" cy="330" r="6" fill="#D2B3F3" stroke="white" stroke-width="2" filter="url(#glow)"/>

  <!-- Tooltip -->
  <rect x="640" y="296" width="78" height="26" rx="8" fill="#D2B3F3"/>
  <text x="679" y="314" font-family="system-ui,sans-serif" font-size="12" fill="#110d1f" text-anchor="middle" font-weight="800">17.8%</text>

  <!-- ═══ Pipeline Breakdown ═══ -->
  <rect x="756" y="260" width="404" height="280" rx="14" fill="url(#cardGrad)" stroke="#D2B3F3" stroke-opacity="0.06" filter="url(#cardShadow)"/>
  <text x="780" y="290" font-family="system-ui,sans-serif" font-size="14" fill="white" font-weight="700">Pipeline Breakdown</text>

  <!-- Discovered -->
  <text x="780" y="326" font-family="system-ui,sans-serif" font-size="11" fill="#7a6b94">Discovered</text>
  <text x="1130" y="326" font-family="system-ui,sans-serif" font-size="12" fill="white" text-anchor="end" font-weight="700">2,847</text>
  <rect x="780" y="334" width="350" height="8" rx="4" fill="#D2B3F3" opacity="0.06"/>
  <rect x="780" y="334" width="350" height="8" rx="4" fill="url(#barLav)"/>

  <!-- Enriched -->
  <text x="780" y="366" font-family="system-ui,sans-serif" font-size="11" fill="#7a6b94">Enriched &amp; Verified</text>
  <text x="1130" y="366" font-family="system-ui,sans-serif" font-size="12" fill="white" text-anchor="end" font-weight="700">2,412</text>
  <rect x="780" y="374" width="350" height="8" rx="4" fill="#D2B3F3" opacity="0.06"/>
  <rect x="780" y="374" width="296" height="8" rx="4" fill="url(#barLav)" opacity="0.75"/>

  <!-- Personalized -->
  <text x="780" y="406" font-family="system-ui,sans-serif" font-size="11" fill="#7a6b94">AI Personalized</text>
  <text x="1130" y="406" font-family="system-ui,sans-serif" font-size="12" fill="white" text-anchor="end" font-weight="700">1,923</text>
  <rect x="780" y="414" width="350" height="8" rx="4" fill="#D2B3F3" opacity="0.06"/>
  <rect x="780" y="414" width="236" height="8" rx="4" fill="url(#barLav)" opacity="0.55"/>

  <!-- Sent -->
  <text x="780" y="446" font-family="system-ui,sans-serif" font-size="11" fill="#7a6b94">Sent</text>
  <text x="1130" y="446" font-family="system-ui,sans-serif" font-size="12" fill="white" text-anchor="end" font-weight="700">1,923</text>
  <rect x="780" y="454" width="350" height="8" rx="4" fill="#D2B3F3" opacity="0.06"/>
  <rect x="780" y="454" width="236" height="8" rx="4" fill="url(#barLav)" opacity="0.4"/>

  <!-- Replied — highlighted -->
  <text x="780" y="486" font-family="system-ui,sans-serif" font-size="11" fill="#14B8A6" font-weight="600">Replied</text>
  <text x="1130" y="486" font-family="system-ui,sans-serif" font-size="12" fill="#5EEAD4" text-anchor="end" font-weight="800">342</text>
  <rect x="780" y="494" width="350" height="8" rx="4" fill="#14B8A6" opacity="0.06"/>
  <rect x="780" y="494" width="42" height="8" rx="4" fill="url(#barTeal)"/>

  <!-- Meetings -->
  <text x="780" y="522" font-family="system-ui,sans-serif" font-size="11" fill="#14B8A6" font-weight="600">Meetings Booked</text>
  <text x="1130" y="522" font-family="system-ui,sans-serif" font-size="12" fill="#5EEAD4" text-anchor="end" font-weight="800">89</text>
  <rect x="780" y="530" width="350" height="8" rx="4" fill="#14B8A6" opacity="0.06"/>
  <rect x="780" y="530" width="11" height="8" rx="4" fill="url(#barTeal)"/>

  <!-- ═══ Recent Replies — social proof strip ═══ -->
  <rect x="40" y="558" width="1120" height="142" rx="14" fill="url(#cardGrad)" stroke="#D2B3F3" stroke-opacity="0.06" filter="url(#cardShadow)"/>
  <text x="64" y="588" font-family="system-ui,sans-serif" font-size="14" fill="white" font-weight="700">Recent Replies</text>
  <rect x="176" y="575" width="68" height="20" rx="10" fill="#14B8A6" opacity="0.12"/>
  <text x="210" y="589" font-family="system-ui,sans-serif" font-size="10" fill="#14B8A6" text-anchor="middle" font-weight="600">+12 today</text>

  <!-- Divider -->
  <line x1="64" y1="600" x2="1136" y2="600" stroke="#D2B3F3" stroke-opacity="0.05"/>

  <!-- Reply 1 -->
  <circle cx="80" cy="636" r="16" fill="#D2B3F3" opacity="0.12"/>
  <text x="80" y="640" font-family="system-ui,sans-serif" font-size="10" fill="#D2B3F3" text-anchor="middle" font-weight="700">JM</text>
  <text x="106" y="628" font-family="system-ui,sans-serif" font-size="11" fill="white" font-weight="600">James Miller</text>
  <text x="200" y="628" font-family="system-ui,sans-serif" font-size="10" fill="#7a6b94">VP Sales, TechCorp</text>
  <rect x="106" y="636" width="260" height="28" rx="8" fill="#D2B3F3" opacity="0.04"/>
  <text x="116" y="654" font-family="system-ui,sans-serif" font-size="10" fill="#a89bbe">"Exactly what we need. Can we schedule a call this week?"</text>
  <text x="106" y="680" font-family="system-ui,sans-serif" font-size="9" fill="#5a4d73">2 min ago</text>

  <!-- Reply 2 -->
  <circle cx="420" cy="636" r="16" fill="#14B8A6" opacity="0.12"/>
  <text x="420" y="640" font-family="system-ui,sans-serif" font-size="10" fill="#14B8A6" text-anchor="middle" font-weight="700">SK</text>
  <text x="446" y="628" font-family="system-ui,sans-serif" font-size="11" fill="white" font-weight="600">Sarah Kim</text>
  <text x="520" y="628" font-family="system-ui,sans-serif" font-size="10" fill="#7a6b94">Head of Growth, ScaleUp</text>
  <rect x="446" y="636" width="240" height="28" rx="8" fill="#14B8A6" opacity="0.03"/>
  <text x="456" y="654" font-family="system-ui,sans-serif" font-size="10" fill="#a89bbe">"Forwarded to our CRO. Let's connect Thursday."</text>
  <text x="446" y="680" font-family="system-ui,sans-serif" font-size="9" fill="#5a4d73">14 min ago</text>

  <!-- Reply 3 -->
  <circle cx="760" cy="636" r="16" fill="#D2B3F3" opacity="0.12"/>
  <text x="760" y="640" font-family="system-ui,sans-serif" font-size="10" fill="#D2B3F3" text-anchor="middle" font-weight="700">AR</text>
  <text x="786" y="628" font-family="system-ui,sans-serif" font-size="11" fill="white" font-weight="600">Alex Rivera</text>
  <text x="862" y="628" font-family="system-ui,sans-serif" font-size="10" fill="#7a6b94">CEO, DataFlow</text>
  <rect x="786" y="636" width="280" height="28" rx="8" fill="#D2B3F3" opacity="0.04"/>
  <text x="796" y="654" font-family="system-ui,sans-serif" font-size="10" fill="#a89bbe">"Great personalization. How do you handle SOC 2?"</text>
  <text x="786" y="680" font-family="system-ui,sans-serif" font-size="9" fill="#5a4d73">28 min ago</text>
</svg>
