<svg xmlns="http://www.w3.org/2000/svg" viewBox="0 0 600 450">
  <!-- Main card background -->
  <rect x="16" y="12" width="568" height="426" rx="12" fill="#252636" stroke="#3A3B4F" stroke-width="1"/>

  <!-- Window chrome bar -->
  <rect x="16" y="12" width="568" height="40" rx="12" fill="#252636"/>
  <rect x="16" y="40" width="568" height="12" fill="#252636"/>
  <line x1="16" y1="52" x2="584" y2="52" stroke="#3A3B4F" stroke-width="1"/>

  <!-- Window dots -->
  <circle cx="40" cy="32" r="6" fill="#FF5F57"/>
  <circle cx="58" cy="32" r="6" fill="#FEBC2E"/>
  <circle cx="76" cy="32" r="6" fill="#28C840"/>

  <!-- Spreadsheet title -->
  <text x="100" y="37" font-family="Inter, system-ui, sans-serif" font-size="13" font-weight="600" fill="#8B8BA0">prospect_list_2024.csv</text>

  <!-- Table header -->
  <text x="56" y="82" font-family="Inter, system-ui, sans-serif" font-size="12" font-weight="600" fill="#8B8BA0">COMPANY</text>
  <text x="220" y="82" font-family="Inter, system-ui, sans-serif" font-size="12" font-weight="600" fill="#8B8BA0">EMAIL</text>
  <text x="410" y="82" font-family="Inter, system-ui, sans-serif" font-size="12" font-weight="600" fill="#8B8BA0">LAST UPDATED</text>
  <text x="545" y="82" font-family="Inter, system-ui, sans-serif" font-size="12" font-weight="600" fill="#8B8BA0">STATUS</text>
  <line x1="40" y1="92" x2="560" y2="92" stroke="#D2B3F3" stroke-width="1"/>

  <!-- Row 1 -->
  <rect x="56" y="108" width="100" height="12" rx="2" fill="#8B8BA0" fill-opacity="0.2"/>
  <rect x="220" y="108" width="140" height="12" rx="2" fill="#8B8BA0" fill-opacity="0.15"/>
  <text x="410" y="119" font-family="Inter, system-ui, sans-serif" font-size="11" font-weight="400" fill="#F97066">6 months ago</text>
  <circle cx="554" cy="114" r="9" fill="#F97066" fill-opacity="0.15"/>
  <text x="554" y="118" font-family="Inter, system-ui, sans-serif" font-size="11" font-weight="600" fill="#F97066" text-anchor="middle">&#x2717;</text>
  <line x1="40" y1="134" x2="560" y2="134" stroke="#3A3B4F" stroke-width="1"/>

  <!-- Row 2 -->
  <rect x="56" y="150" width="80" height="12" rx="2" fill="#8B8BA0" fill-opacity="0.2"/>
  <rect x="220" y="150" width="120" height="12" rx="2" fill="#8B8BA0" fill-opacity="0.15"/>
  <text x="410" y="161" font-family="Inter, system-ui, sans-serif" font-size="11" font-weight="400" fill="#F97066">8 months ago</text>
  <circle cx="554" cy="156" r="9" fill="#F97066" fill-opacity="0.15"/>
  <text x="554" y="160" font-family="Inter, system-ui, sans-serif" font-size="11" font-weight="600" fill="#F97066" text-anchor="middle">&#x2717;</text>
  <line x1="40" y1="176" x2="560" y2="176" stroke="#3A3B4F" stroke-width="1"/>

  <!-- Row 3 (the okay one) -->
  <rect x="56" y="192" width="110" height="12" rx="2" fill="#8B8BA0" fill-opacity="0.2"/>
  <rect x="220" y="192" width="130" height="12" rx="2" fill="#8B8BA0" fill-opacity="0.15"/>
  <text x="410" y="203" font-family="Inter, system-ui, sans-serif" font-size="11" font-weight="400" fill="#8B8BA0">2 months ago</text>
  <circle cx="554" cy="198" r="9" fill="#34D399" fill-opacity="0.1"/>
  <text x="554" y="202" font-family="Inter, system-ui, sans-serif" font-size="11" font-weight="600" fill="#34D399" fill-opacity="0.5" text-anchor="middle">&#x2713;</text>
  <line x1="40" y1="218" x2="560" y2="218" stroke="#3A3B4F" stroke-width="1"/>

  <!-- Row 4 -->
  <rect x="56" y="234" width="90" height="12" rx="2" fill="#8B8BA0" fill-opacity="0.2"/>
  <rect x="220" y="234" width="150" height="12" rx="2" fill="#8B8BA0" fill-opacity="0.15"/>
  <text x="410" y="245" font-family="Inter, system-ui, sans-serif" font-size="11" font-weight="400" fill="#F97066">1 year ago</text>
  <circle cx="554" cy="240" r="9" fill="#F97066" fill-opacity="0.15"/>
  <text x="554" y="244" font-family="Inter, system-ui, sans-serif" font-size="11" font-weight="600" fill="#F97066" text-anchor="middle">&#x2717;</text>
  <line x1="40" y1="260" x2="560" y2="260" stroke="#3A3B4F" stroke-width="1"/>

  <!-- Row 5 -->
  <rect x="56" y="276" width="70" height="12" rx="2" fill="#8B8BA0" fill-opacity="0.2"/>
  <rect x="220" y="276" width="135" height="12" rx="2" fill="#8B8BA0" fill-opacity="0.15"/>
  <text x="410" y="287" font-family="Inter, system-ui, sans-serif" font-size="11" font-weight="400" fill="#F97066">11 months ago</text>
  <circle cx="554" cy="282" r="9" fill="#F97066" fill-opacity="0.15"/>
  <text x="554" y="286" font-family="Inter, system-ui, sans-serif" font-size="11" font-weight="600" fill="#F97066" text-anchor="middle">&#x2717;</text>
  <line x1="40" y1="302" x2="560" y2="302" stroke="#3A3B4F" stroke-width="1"/>

  <!-- Row 6 -->
  <rect x="56" y="318" width="95" height="12" rx="2" fill="#8B8BA0" fill-opacity="0.2"/>
  <rect x="220" y="318" width="110" height="12" rx="2" fill="#8B8BA0" fill-opacity="0.15"/>
  <text x="410" y="329" font-family="Inter, system-ui, sans-serif" font-size="11" font-weight="400" fill="#F97066">expired</text>
  <circle cx="554" cy="324" r="9" fill="#F97066" fill-opacity="0.15"/>
  <text x="554" y="328" font-family="Inter, system-ui, sans-serif" font-size="11" font-weight="600" fill="#F97066" text-anchor="middle">&#x2717;</text>

  <!-- OUTDATED diagonal watermark -->
  <text x="300" y="260" font-family="Inter, system-ui, sans-serif" font-size="64" font-weight="600" fill="#F97066" fill-opacity="0.06" text-anchor="middle" transform="rotate(-25, 300, 260)">OUTDATED</text>
</svg>