<svg xmlns="http://www.w3.org/2000/svg" width="512" height="512" viewBox="0 0 286 286">
<rect width="286" height="286" rx="143" fill="#D2B3F3"/>
<g filter="url(#filter0_f_208_19)">
<path d="M180.5 197L205.5 82L82.5083 106.619C78.6611 107.39 77.1505 112.088 79.8269 114.957C89.46 125.282 107.674 144.943 114.097 152.805C122.407 161.879 121.199 176.756 112.727 184.023C101.625 193.37 40.3979 233.269 40.3979 233.269C40.3979 233.269 86.6968 185.055 95.7566 173.512C97.5398 170.648 96.275 167.247 94.2668 166.253C83.5796 157.12 70.8296 145.714 60.4099 136.319C45.6889 123.533 52.1415 95.3861 72.2437 90.4801C100.517 81.6868 135.848 73.5626 160.69 68.2609C176.179 64.9553 190.231 77.5746 188.945 93.3601L180.5 197Z" fill="#7D3CC2"/>
</g>
<path d="M186.976 197.27C185.88 200.766 180.669 199.623 181.138 195.989L194.723 90.629L99.6113 113.493C95.6816 114.438 94.4139 119.422 97.3988 122.147C105.908 129.916 119.755 142.864 125.709 150.152C134.019 159.226 132.811 174.103 124.339 181.37C113.237 190.717 52.0099 230.615 52.0099 230.615C52.0099 230.615 98.3088 182.402 107.369 170.859C109.152 167.994 107.887 164.594 105.879 163.599C95.1916 154.467 82.4415 143.061 72.0219 133.666C57.3009 120.88 63.7535 92.7329 83.8557 87.8269C112.675 78.8637 159.165 67.485 192.587 59.6291C210.557 55.4051 226.128 72.3333 220.608 89.9485L186.976 197.27Z" fill="white"/>
<defs>
<filter id="filter0_f_208_19" x="4.39795" y="31.731" width="237.102" height="237.538" filterUnits="userSpaceOnUse" color-interpolation-filters="sRGB">
<feFlood flood-opacity="0" result="BackgroundImageFix"/>
<feBlend mode="normal" in="SourceGraphic" in2="BackgroundImageFix" result="shape"/>
<feGaussianBlur stdDeviation="18" result="effect1_foregroundBlur_208_19"/>
</filter>
</defs>
</svg>
