<svg width="1050" height="286" viewBox="0 0 1050 286" fill="none" xmlns="http://www.w3.org/2000/svg">
<path d="M1028.15 191V96.1001H1049.08V191H1028.15ZM1019.7 111.44V96.1001H1049.08V111.44H1019.7Z" fill="#D2B3F3"/>
<path d="M987.146 191V96.1001H1008.08V191H987.146ZM978.696 111.44V96.1001H1008.08V111.44H978.696Z" fill="#D2B3F3"/>
<path d="M757.72 191V119.76H774.23V150.44H773.06C773.06 143.16 773.97 137.093 775.79 132.24C777.61 127.387 780.34 123.747 783.98 121.32C787.62 118.807 792.084 117.55 797.37 117.55H798.28C803.654 117.55 808.117 118.807 811.67 121.32C815.31 123.747 818.04 127.387 819.86 132.24C821.767 137.093 822.72 143.16 822.72 150.44H817.65C817.65 143.16 818.56 137.093 820.38 132.24C822.287 127.387 825.06 123.747 828.7 121.32C832.34 118.807 836.804 117.55 842.09 117.55H843C848.374 117.55 852.88 118.807 856.52 121.32C860.247 123.747 863.064 127.387 864.97 132.24C866.877 137.093 867.83 143.16 867.83 150.44V191H847.03V149.27C847.03 145.37 845.99 142.207 843.91 139.78C841.917 137.353 839.057 136.14 835.33 136.14C831.604 136.14 828.657 137.397 826.49 139.91C824.324 142.337 823.24 145.587 823.24 149.66V191H802.31V149.27C802.31 145.37 801.27 142.207 799.19 139.78C797.197 137.353 794.38 136.14 790.74 136.14C786.927 136.14 783.937 137.397 781.77 139.91C779.604 142.337 778.52 145.587 778.52 149.66V191H757.72Z" fill="#5B5A63"/>
<path d="M681.703 191V96.1001H702.503V191H681.703ZM699.903 191V173.32H741.373V191H699.903ZM699.903 151.61V133.93H738.383V151.61H699.903ZM699.903 113.78V96.1001H740.463V113.78H699.903Z" fill="#5B5A63"/>
<path d="M618.507 193.34C613.48 193.34 608.887 192.43 604.727 190.61C600.653 188.79 597.1 186.277 594.067 183.07C591.033 179.777 588.693 175.92 587.047 171.5C585.487 167.08 584.707 162.313 584.707 157.2V154.21C584.707 149.097 585.443 144.33 586.917 139.91C588.477 135.49 590.687 131.633 593.547 128.34C596.493 124.96 600.003 122.36 604.077 120.54C608.15 118.633 612.7 117.68 617.727 117.68C623.447 117.68 628.387 118.937 632.547 121.45C636.707 123.877 639.957 127.517 642.297 132.37C644.637 137.137 645.937 143.03 646.197 150.05L640.737 144.98V96.1001H661.667V191H645.157V161.49H648.017C647.757 168.25 646.327 174.013 643.727 178.78C641.213 183.547 637.79 187.187 633.457 189.7C629.123 192.127 624.14 193.34 618.507 193.34ZM623.707 175.92C626.913 175.92 629.817 175.227 632.417 173.84C635.103 172.367 637.227 170.243 638.787 167.47C640.433 164.697 641.257 161.36 641.257 157.46V152.65C641.257 148.837 640.433 145.63 638.787 143.03C637.14 140.43 634.973 138.437 632.287 137.05C629.6 135.663 626.697 134.97 623.577 134.97C620.11 134.97 616.99 135.88 614.217 137.7C611.53 139.433 609.407 141.86 607.847 144.98C606.287 148.013 605.507 151.567 605.507 155.64C605.507 159.8 606.287 163.397 607.847 166.43C609.407 169.463 611.573 171.803 614.347 173.45C617.12 175.097 620.24 175.92 623.707 175.92Z" fill="#D2B3F3"/>
<path d="M504.322 191V119.76H520.832V150.31H519.662C519.662 143.03 520.572 136.963 522.392 132.11C524.299 127.257 527.159 123.617 530.972 121.19C534.785 118.763 539.422 117.55 544.882 117.55H545.792C554.112 117.55 560.439 120.28 564.772 125.74C569.192 131.113 571.402 139.303 571.402 150.31V191H550.602V149.14C550.602 145.327 549.475 142.207 547.222 139.78C544.969 137.353 541.935 136.14 538.122 136.14C534.222 136.14 531.059 137.397 528.632 139.91C526.292 142.337 525.122 145.543 525.122 149.53V191H504.322Z" fill="#D2B3F3"/>
<path d="M455.829 193.47C449.762 193.47 444.389 192.43 439.709 190.35C435.116 188.27 431.259 185.497 428.139 182.03C425.106 178.477 422.766 174.533 421.119 170.2C419.559 165.78 418.779 161.273 418.779 156.68V154.08C418.779 149.313 419.559 144.763 421.119 140.43C422.766 136.01 425.106 132.067 428.139 128.6C431.172 125.133 434.942 122.403 439.449 120.41C444.042 118.33 449.242 117.29 455.049 117.29C462.676 117.29 469.089 119.023 474.289 122.49C479.576 125.87 483.606 130.333 486.379 135.88C489.152 141.34 490.539 147.32 490.539 153.82V160.84H427.489V149.01H477.929L471.169 154.47C471.169 150.223 470.562 146.583 469.349 143.55C468.136 140.517 466.316 138.22 463.889 136.66C461.549 135.013 458.602 134.19 455.049 134.19C451.409 134.19 448.332 135.013 445.819 136.66C443.306 138.307 441.399 140.733 440.099 143.94C438.799 147.06 438.149 150.917 438.149 155.51C438.149 159.757 438.756 163.483 439.969 166.69C441.182 169.81 443.089 172.237 445.689 173.97C448.289 175.703 451.669 176.57 455.829 176.57C459.642 176.57 462.762 175.833 465.189 174.36C467.616 172.887 469.262 171.067 470.129 168.9H489.239C488.199 173.667 486.162 177.913 483.129 181.64C480.096 185.367 476.282 188.27 471.689 190.35C467.096 192.43 461.809 193.47 455.829 193.47Z" fill="#D2B3F3"/>
<path d="M370.68 193.47C362.1 193.47 354.863 192.127 348.97 189.44C343.077 186.667 338.613 182.94 335.58 178.26C332.547 173.493 331.03 168.033 331.03 161.88H351.7C351.7 164.307 352.35 166.56 353.65 168.64C355.037 170.72 357.117 172.41 359.89 173.71C362.663 174.923 366.26 175.53 370.68 175.53C374.667 175.53 378.003 175.01 380.69 173.97C383.377 172.93 385.413 171.5 386.8 169.68C388.187 167.773 388.88 165.607 388.88 163.18C388.88 160.147 387.58 157.763 384.98 156.03C382.38 154.21 378.177 153.04 372.37 152.52L365.22 151.87C355.773 151.09 348.233 148.143 342.6 143.03C336.967 137.917 334.15 131.157 334.15 122.75C334.15 116.683 335.58 111.44 338.44 107.02C341.387 102.6 345.46 99.22 350.66 96.88C355.86 94.4533 362.013 93.24 369.12 93.24C376.573 93.24 382.943 94.54 388.23 97.14C393.603 99.6533 397.72 103.25 400.58 107.93C403.44 112.523 404.87 117.94 404.87 124.18H384.07C384.07 121.84 383.507 119.717 382.38 117.81C381.253 115.817 379.563 114.213 377.31 113C375.143 111.787 372.413 111.18 369.12 111.18C366 111.18 363.357 111.7 361.19 112.74C359.11 113.78 357.55 115.21 356.51 117.03C355.47 118.763 354.95 120.67 354.95 122.75C354.95 125.437 355.903 127.777 357.81 129.77C359.717 131.763 362.837 132.933 367.17 133.28L374.45 133.93C381.383 134.537 387.493 136.053 392.78 138.48C398.067 140.82 402.183 144.07 405.13 148.23C408.163 152.303 409.68 157.287 409.68 163.18C409.68 169.247 408.077 174.577 404.87 179.17C401.75 183.677 397.287 187.187 391.48 189.7C385.673 192.213 378.74 193.47 370.68 193.47Z" fill="#D2B3F3"/>
<rect width="286" height="286" rx="143" fill="#D2B3F3"/>
<g filter="url(#filter0_f_208_19)">
<path d="M180.5 197L205.5 82L82.5083 106.619C78.6611 107.39 77.1505 112.088 79.8269 114.957C89.46 125.282 107.674 144.943 114.097 152.805C122.407 161.879 121.199 176.756 112.727 184.023C101.625 193.37 40.3979 233.269 40.3979 233.269C40.3979 233.269 86.6968 185.055 95.7566 173.512C97.5398 170.648 96.275 167.247 94.2668 166.253C83.5796 157.12 70.8296 145.714 60.4099 136.319C45.6889 123.533 52.1415 95.3861 72.2437 90.4801C100.517 81.6868 135.848 73.5626 160.69 68.2609C176.179 64.9553 190.231 77.5746 188.945 93.3601L180.5 197Z" fill="#7D3CC2"/>
</g>
<path d="M186.976 197.27C185.88 200.766 180.669 199.623 181.138 195.989L194.723 90.629L99.6113 113.493C95.6816 114.438 94.4139 119.422 97.3988 122.147C105.908 129.916 119.755 142.864 125.709 150.152C134.019 159.226 132.811 174.103 124.339 181.37C113.237 190.717 52.0099 230.615 52.0099 230.615C52.0099 230.615 98.3088 182.402 107.369 170.859C109.152 167.994 107.887 164.594 105.879 163.599C95.1916 154.467 82.4415 143.061 72.0219 133.666C57.3009 120.88 63.7535 92.7329 83.8557 87.8269C112.675 78.8637 159.165 67.485 192.587 59.6291C210.557 55.4051 226.128 72.3333 220.608 89.9485L186.976 197.27Z" fill="white"/>
<path d="M976.042 191H953.941L946.238 167.47H930V149.79H940.45L928.575 113.52H923.82L912.239 149.79H923V167.47H906.595L899.082 191H877.762L909.092 96.0996H943.542L976.042 191Z" fill="#D2B3F3"/>
<defs>
<filter id="filter0_f_208_19" x="4.39795" y="31.731" width="237.102" height="237.538" filterUnits="userSpaceOnUse" color-interpolation-filters="sRGB">
<feFlood flood-opacity="0" result="BackgroundImageFix"/>
<feBlend mode="normal" in="SourceGraphic" in2="BackgroundImageFix" result="shape"/>
<feGaussianBlur stdDeviation="18" result="effect1_foregroundBlur_208_19"/>
</filter>
</defs>
</svg>
